<svg xmlns="http://www.w3.org/2000/svg" width="211" height="162" fill="none"><path fill="#fff" d="M62.296 91v-3.546l8.285-7.67a31.367 31.367 0 0 0 1.772-1.84c.485-.546.853-1.08 1.103-1.603a3.97 3.97 0 0 0 .374-1.716c0-.682-.155-1.269-.465-1.761a3.06 3.06 0 0 0-1.273-1.148c-.538-.273-1.148-.41-1.83-.41-.712 0-1.333.145-1.863.433-.53.287-.94.7-1.228 1.238-.288.538-.431 1.178-.431 1.92h-4.67c0-1.522.344-2.844 1.033-3.965.69-1.121 1.655-1.989 2.898-2.603 1.242-.613 2.674-.92 4.295-.92 1.667 0 3.118.295 4.353.886 1.242.584 2.208 1.394 2.897 2.432.69 1.038 1.034 2.227 1.034 3.569 0 .878-.174 1.746-.522 2.602-.341.856-.951 1.806-1.83 2.852-.879 1.038-2.117 2.284-3.716 3.739l-3.397 3.33v.158h9.772V91h-16.59Zm31.842.511c-1.955-.007-3.637-.488-5.046-1.443-1.401-.954-2.48-2.337-3.239-4.147-.75-1.811-1.12-3.99-1.113-6.535 0-2.537.375-4.7 1.125-6.488.758-1.788 1.837-3.148 3.239-4.08 1.409-.94 3.087-1.409 5.034-1.409 1.947 0 3.62.47 5.022 1.41 1.409.939 2.493 2.302 3.25 4.09.758 1.78 1.133 3.94 1.125 6.477 0 2.553-.378 4.735-1.136 6.546-.75 1.81-1.826 3.193-3.227 4.147-1.402.955-3.08 1.432-5.034 1.432Zm0-4.08c1.333 0 2.397-.67 3.193-2.01.795-1.342 1.19-3.353 1.182-6.035 0-1.765-.182-3.234-.546-4.409-.356-1.174-.864-2.056-1.523-2.648a3.32 3.32 0 0 0-2.306-.886c-1.326 0-2.387.663-3.182 1.989-.796 1.326-1.197 3.31-1.205 5.954 0 1.788.178 3.28.534 4.478.364 1.189.875 2.083 1.534 2.681.66.591 1.432.887 2.319.887ZM109.604 91v-3.546l8.284-7.67a31.78 31.78 0 0 0 1.773-1.84c.485-.546.852-1.08 1.102-1.603.25-.53.375-1.102.375-1.716 0-.682-.155-1.269-.466-1.761a3.061 3.061 0 0 0-1.273-1.148c-.538-.273-1.147-.41-1.829-.41-.712 0-1.334.145-1.864.433-.53.287-.939.7-1.227 1.238-.288.538-.432 1.178-.432 1.92h-4.67c0-1.522.344-2.844 1.034-3.965.689-1.121 1.655-1.989 2.897-2.603 1.243-.613 2.675-.92 4.296-.92 1.667 0 3.117.295 4.352.886 1.243.584 2.208 1.394 2.898 2.432.689 1.038 1.034 2.227 1.034 3.569a6.84 6.84 0 0 1-.523 2.602c-.341.856-.951 1.806-1.829 2.852-.879 1.038-2.118 2.284-3.716 3.739l-3.398 3.33v.158h9.773V91h-16.591Zm22.716 0v-3.546l8.284-7.67a31.122 31.122 0 0 0 1.773-1.84c.485-.546.852-1.08 1.102-1.603.25-.53.375-1.102.375-1.716 0-.682-.155-1.269-.466-1.761-.31-.5-.735-.883-1.272-1.148-.538-.273-1.148-.41-1.83-.41-.712 0-1.333.145-1.864.433-.53.287-.939.7-1.227 1.238-.288.538-.432 1.178-.432 1.92h-4.67c0-1.522.345-2.844 1.034-3.965.689-1.121 1.655-1.989 2.898-2.603 1.242-.613 2.674-.92 4.295-.92 1.667 0 3.118.295 4.352.886 1.243.584 2.209 1.394 2.898 2.432.69 1.038 1.034 2.227 1.034 3.569a6.84 6.84 0 0 1-.523 2.602c-.34.856-.95 1.806-1.829 2.852-.879 1.038-2.117 2.284-3.716 3.739l-3.398 3.33v.158h9.773V91H132.32Zm-73.77 43.524a12.527 12.527 0 0 1 10.562 4.114 12.527 12.527 0 0 1 2.933 10.951 12.528 12.528 0 0 1-10.56-4.115 12.527 12.527 0 0 1-2.935-10.95Zm-8.462 21.621a12.529 12.529 0 0 1 9.312-6.465 12.524 12.524 0 0 1 10.722 3.684 12.528 12.528 0 0 1-9.31 6.463 12.532 12.532 0 0 1-10.724-3.682Zm-6.225-32.073a12.525 12.525 0 0 1 10.032 5.275 12.527 12.527 0 0 1 1.684 11.212 12.525 12.525 0 0 1-10.032-5.275 12.528 12.528 0 0 1-1.684-11.212Zm-10.839 20.53a12.527 12.527 0 0 1 9.98-5.376 12.523 12.523 0 0 1 10.24 4.865 12.528 12.528 0 0 1-9.979 5.375 12.527 12.527 0 0 1-10.241-4.864Zm1.578-33.355a12.529 12.529 0 0 1 7.62 8.393c1.1 4.002.13 8.083-2.258 11.109a12.528 12.528 0 0 1-7.618-8.391 12.53 12.53 0 0 1 2.256-11.111Zm-17.214 15.579a12.527 12.527 0 0 1 11.217-1.634 12.529 12.529 0 0 1 7.956 8.078 12.529 12.529 0 0 1-11.216 1.633 12.529 12.529 0 0 1-7.957-8.077ZM28.75 95.902a12.529 12.529 0 0 1 5.033 10.157 12.528 12.528 0 0 1-5.212 10.068 12.53 12.53 0 0 1-5.032-10.156 12.529 12.529 0 0 1 5.21-10.07ZM7.93 106.177a12.53 12.53 0 0 1 11.236 1.497 12.528 12.528 0 0 1 5.442 9.946 12.527 12.527 0 0 1-11.235-1.498 12.53 12.53 0 0 1-5.443-9.945Zm18.164-27.442a12.53 12.53 0 0 1 2.95 10.945 12.528 12.528 0 0 1-7.08 8.855 12.53 12.53 0 0 1-2.948-10.945 12.53 12.53 0 0 1 7.078-8.855Zm.967-17.695a12.53 12.53 0 0 1 1.855 11.184 12.528 12.528 0 0 1-7.92 8.112 12.53 12.53 0 0 1-1.853-11.183 12.53 12.53 0 0 1 7.918-8.113Zm4.991-15.539a12.529 12.529 0 0 1-3.42 10.806 12.527 12.527 0 0 1-10.738 3.638 12.528 12.528 0 0 1 3.42-10.805 12.529 12.529 0 0 1 10.738-3.639ZM3.668 84.74a12.528 12.528 0 0 1 10.726 3.665 12.527 12.527 0 0 1 3.392 10.82A12.527 12.527 0 0 1 7.06 95.558a12.53 12.53 0 0 1-3.393-10.82Zm.484-19.94a12.528 12.528 0 0 1 10.311 4.707 12.528 12.528 0 0 1 2.307 11.1A12.528 12.528 0 0 1 6.46 75.9a12.53 12.53 0 0 1-2.308-11.1Zm5.775-26.338a12.528 12.528 0 0 1 7.057 8.872 12.528 12.528 0 0 1-2.98 10.938 12.528 12.528 0 0 1-7.054-8.87 12.53 12.53 0 0 1 2.977-10.94Zm34.867-7.775A12.53 12.53 0 0 1 38.329 40a12.527 12.527 0 0 1-11.334.298 12.529 12.529 0 0 1 6.465-9.31 12.529 12.529 0 0 1 11.334-.3ZM25.742 17.42a12.53 12.53 0 0 1 4.115 10.563 12.528 12.528 0 0 1-6.082 9.567 12.53 12.53 0 0 1-4.113-10.562 12.53 12.53 0 0 1 6.08-9.568Zm33.595 4.336a12.529 12.529 0 0 1-9.462 6.24 12.527 12.527 0 0 1-10.63-3.936 12.527 12.527 0 0 1 9.46-6.24 12.53 12.53 0 0 1 10.632 3.936ZM70.634 5.89a12.529 12.529 0 0 1-7.283 8.686 12.527 12.527 0 0 1-11.313-.732 12.528 12.528 0 0 1 7.282-8.685 12.529 12.529 0 0 1 11.314.732ZM46.586 2.357a12.527 12.527 0 0 1-.108 11.335 12.528 12.528 0 0 1-9.202 6.622 12.529 12.529 0 0 1 .107-11.334 12.53 12.53 0 0 1 9.203-6.623Zm105.725 132.166a12.526 12.526 0 0 0-10.562 4.114 12.528 12.528 0 0 0-2.934 10.951 12.53 12.53 0 0 0 10.561-4.114 12.53 12.53 0 0 0 2.935-10.951Zm8.461 21.622a12.529 12.529 0 0 0-9.312-6.465 12.524 12.524 0 0 0-10.722 3.684 12.527 12.527 0 0 0 9.31 6.463 12.53 12.53 0 0 0 10.724-3.682Zm6.226-32.073a12.526 12.526 0 0 0-10.033 5.275 12.527 12.527 0 0 0-1.683 11.212 12.524 12.524 0 0 0 10.031-5.275 12.524 12.524 0 0 0 1.685-11.212Zm10.838 20.53a12.526 12.526 0 0 0-9.979-5.376 12.526 12.526 0 0 0-10.241 4.865 12.53 12.53 0 0 0 9.979 5.375 12.526 12.526 0 0 0 10.241-4.864Zm-1.577-33.355a12.53 12.53 0 0 0-7.62 8.393 12.526 12.526 0 0 0 2.258 11.109 12.525 12.525 0 0 0 7.618-8.391 12.529 12.529 0 0 0-2.256-11.111Zm17.213 15.579a12.525 12.525 0 0 0-11.216-1.634 12.528 12.528 0 0 0-7.957 8.078 12.53 12.53 0 0 0 11.217 1.633 12.528 12.528 0 0 0 7.956-8.077Zm-11.361-30.924a12.53 12.53 0 0 0-5.034 10.157 12.532 12.532 0 0 0 5.212 10.068 12.53 12.53 0 0 0 5.032-10.156 12.527 12.527 0 0 0-5.21-10.07Zm20.819 10.275a12.529 12.529 0 0 0-11.236 1.497 12.528 12.528 0 0 0-5.442 9.946c3.64 1.268 7.813.85 11.235-1.498a12.527 12.527 0 0 0 5.443-9.945Zm-18.164-27.442a12.529 12.529 0 0 0-2.95 10.945 12.53 12.53 0 0 0 7.081 8.855 12.532 12.532 0 0 0 2.948-10.945 12.53 12.53 0 0 0-7.079-8.855Zm-.967-17.695a12.526 12.526 0 0 0-1.854 11.184 12.527 12.527 0 0 0 7.92 8.112 12.53 12.53 0 0 0 1.853-11.183 12.53 12.53 0 0 0-7.919-8.113Zm-4.991-15.539a12.532 12.532 0 0 0 3.42 10.806 12.528 12.528 0 0 0 10.738 3.638 12.527 12.527 0 0 0-3.42-10.805 12.528 12.528 0 0 0-10.738-3.639Zm28.384 39.239a12.527 12.527 0 0 0-10.726 3.665 12.528 12.528 0 0 0-3.392 10.82 12.528 12.528 0 0 0 10.725-3.666 12.529 12.529 0 0 0 3.393-10.82Zm-.483-19.94a12.528 12.528 0 0 0-10.312 4.707 12.528 12.528 0 0 0-2.307 11.1A12.527 12.527 0 0 0 204.4 75.9a12.526 12.526 0 0 0 2.309-11.1Zm-5.776-26.338a12.527 12.527 0 0 0-7.056 8.872 12.53 12.53 0 0 0 2.979 10.938 12.528 12.528 0 0 0 7.054-8.87 12.528 12.528 0 0 0-2.977-10.94Zm-34.866-7.775A12.529 12.529 0 0 0 172.532 40a12.526 12.526 0 0 0 11.333.298 12.53 12.53 0 0 0-6.464-9.31 12.53 12.53 0 0 0-11.334-.3Zm19.052-13.267a12.526 12.526 0 0 0-4.115 10.563 12.525 12.525 0 0 0 6.082 9.567 12.529 12.529 0 0 0 4.113-10.562 12.528 12.528 0 0 0-6.08-9.568Zm-33.596 4.336a12.53 12.53 0 0 0 9.463 6.24 12.527 12.527 0 0 0 10.63-3.936 12.526 12.526 0 0 0-9.46-6.24 12.53 12.53 0 0 0-10.633 3.936ZM140.227 5.89a12.527 12.527 0 0 0 7.283 8.686 12.527 12.527 0 0 0 11.313-.732 12.528 12.528 0 0 0-7.282-8.685 12.528 12.528 0 0 0-11.314.732Zm24.048-3.533a12.526 12.526 0 0 0 .107 11.335 12.528 12.528 0 0 0 9.203 6.622 12.527 12.527 0 0 0-.108-11.334 12.53 12.53 0 0 0-9.202-6.623Z"/></svg>