<svg xmlns="http://www.w3.org/2000/svg" width="513" height="272" fill="none"><g clip-path="url(#a)" style="mix-blend-mode:hard-light"><path fill="url(#b)" fill-opacity=".02" d="M151.22-30.053h-30.94V.887h30.94v-30.94z"/><path fill="url(#c)" fill-opacity=".02" d="M121.053 150.947h-30.94v30.94h30.94v-30.94z"/><path fill="url(#d)" fill-opacity=".02" d="M422.72.113h-30.94v30.94h30.94V.113z"/><path stroke="url(#e)" stroke-opacity=".08" d="M30.167-90H0v30.167M30.167-90v30.167m0-30.167h30.166M30.167-59.833H0m30.167 0h30.166m-30.166 0v30.166M0-59.833v30.166M60.333-90v30.167m0-30.167H90.5M60.333-59.833H90.5m-30.167 0v30.166M90.5-90v30.167M90.5-90h30.167M90.5-59.833h30.167m-30.167 0v30.166M120.667-90v30.167m0-30.167h30.166m-30.166 30.167h30.166m-30.166 0v30.166M150.833-90v30.167m0-30.167H181m-30.167 30.167H181m-30.167 0v30.166M181-90v30.167M181-90h30.167M181-59.833h30.167m-30.167 0v30.166M211.167-90v30.167m0-30.167h30.166m-30.166 30.167h30.166m-30.166 0v30.166M241.333-90v30.167m0-30.167H271.5m-30.167 30.167H271.5m-30.167 0v30.166M271.5-90v30.167m0-30.167h30.167M271.5-59.833h30.167m-30.167 0v30.166M301.667-90v30.167m0-30.167h30.166m-30.166 30.167h30.166m-30.166 0v30.166M331.833-90v30.167m0-30.167H362m-30.167 30.167H362m-30.167 0v30.166M362-90v30.167M362-90h30.167M362-59.833h30.167m-30.167 0v30.166M392.167-90v30.167m0-30.167h30.166m-30.166 30.167h30.166m-30.166 0v30.166M422.333-90v30.167m0-30.167H452.5m-30.167 30.167H452.5m-30.167 0v30.166M452.5-90v30.167m0-30.167h30.167M452.5-59.833h30.167m-30.167 0v30.166M482.667-90v30.167m0-30.167h30.166v30.167m-30.166 0h30.166m-30.166 0v30.166m30.166-30.166v30.166m-482.666 0H0m30.167 0h30.166m-30.166 0V.5M0-29.667V.5m60.333-30.167H90.5m-30.167 0V.5M90.5-29.667h30.167m-30.167 0V.5m30.167-30.167h30.166m-30.166 0V.5m30.166-30.167H181m-30.167 0V.5M181-29.667h30.167m-30.167 0V.5m30.167-30.167h30.166m-30.166 0V.5m30.166-30.167H271.5m-30.167 0V.5M271.5-29.667h30.167m-30.167 0V.5m30.167-30.167h30.166m-30.166 0V.5m30.166-30.167H362m-30.167 0V.5M362-29.667h30.167m-30.167 0V.5m30.167-30.167h30.166m-30.166 0V.5m30.166-30.167H452.5m-30.167 0V.5M452.5-29.667h30.167m-30.167 0V.5m30.167-30.167h30.166m-30.166 0V.5m30.166-30.167V.5M30.167.5H0m30.167 0h30.166M30.167.5v30.167M0 .5v30.167M60.333.5H90.5M60.333.5v30.167M90.5.5h30.167M90.5.5v30.167M120.667.5h30.166m-30.166 0v30.167M150.833.5H181m-30.167 0v30.167M181 .5h30.167M181 .5v30.167M211.167.5h30.166m-30.166 0v30.167M241.333.5H271.5m-30.167 0v30.167M271.5.5h30.167M271.5.5v30.167M301.667.5h30.166m-30.166 0v30.167M331.833.5H362m-30.167 0v30.167M362 .5h30.167M362 .5v30.167M392.167.5h30.166m-30.166 0v30.167M422.333.5H452.5m-30.167 0v30.167M452.5.5h30.167M452.5.5v30.167M482.667.5h30.166m-30.166 0v30.167M512.833.5v30.167m-482.666 0H0m30.167 0h30.166m-30.166 0v30.166M0 30.667v30.166m60.333-30.166H90.5m-30.167 0v30.166M90.5 30.667h30.167m-30.167 0v30.166m30.167-30.166h30.166m-30.166 0v30.166m30.166-30.166H181m-30.167 0v30.166M181 30.667h30.167m-30.167 0v30.166m30.167-30.166h30.166m-30.166 0v30.166m30.166-30.166H271.5m-30.167 0v30.166M271.5 30.667h30.167m-30.167 0v30.166m30.167-30.166h30.166m-30.166 0v30.166m30.166-30.166H362m-30.167 0v30.166M362 30.667h30.167m-30.167 0v30.166m30.167-30.166h30.166m-30.166 0v30.166m30.166-30.166H452.5m-30.167 0v30.166M452.5 30.667h30.167m-30.167 0v30.166m30.167-30.166h30.166m-30.166 0v30.166m30.166-30.166v30.166m-482.666 0H0m30.167 0h30.166m-30.166 0V91M0 60.833V91m60.333-30.167H90.5m-30.167 0V91M90.5 60.833h30.167m-30.167 0V91m30.167-30.167h30.166m-30.166 0V91m30.166-30.167H181m-30.167 0V91M181 60.833h30.167m-30.167 0V91m30.167-30.167h30.166m-30.166 0V91m30.166-30.167H271.5m-30.167 0V91M271.5 60.833h30.167m-30.167 0V91m30.167-30.167h30.166m-30.166 0V91m30.166-30.167H362m-30.167 0V91M362 60.833h30.167m-30.167 0V91m30.167-30.167h30.166m-30.166 0V91m30.166-30.167H452.5m-30.167 0V91M452.5 60.833h30.167m-30.167 0V91m30.167-30.167h30.166m-30.166 0V91m30.166-30.167V91M30.167 91H0m30.167 0h30.166m-30.166 0v30.167M0 91v30.167M60.333 91H90.5m-30.167 0v30.167M90.5 91h30.167M90.5 91v30.167M120.667 91h30.166m-30.166 0v30.167M150.833 91H181m-30.167 0v30.167M181 91h30.167M181 91v30.167M211.167 91h30.166m-30.166 0v30.167M241.333 91H271.5m-30.167 0v30.167M271.5 91h30.167M271.5 91v30.167M301.667 91h30.166m-30.166 0v30.167M331.833 91H362m-30.167 0v30.167M362 91h30.167M362 91v30.167M392.167 91h30.166m-30.166 0v30.167M422.333 91H452.5m-30.167 0v30.167M452.5 91h30.167M452.5 91v30.167M482.667 91h30.166m-30.166 0v30.167M512.833 91v30.167m-482.666 0H0m30.167 0h30.166m-30.166 0v30.166M0 121.167v30.166m60.333-30.166H90.5m-30.167 0v30.166M90.5 121.167h30.167m-30.167 0v30.166m30.167-30.166h30.166m-30.166 0v30.166m30.166-30.166H181m-30.167 0v30.166M181 121.167h30.167m-30.167 0v30.166m30.167-30.166h30.166m-30.166 0v30.166m30.166-30.166H271.5m-30.167 0v30.166m30.167-30.166h30.167m-30.167 0v30.166m30.167-30.166h30.166m-30.166 0v30.166m30.166-30.166H362m-30.167 0v30.166M362 121.167h30.167m-30.167 0v30.166m30.167-30.166h30.166m-30.166 0v30.166m30.166-30.166H452.5m-30.167 0v30.166m30.167-30.166h30.167m-30.167 0v30.166m30.167-30.166h30.166m-30.166 0v30.166m30.166-30.166v30.166m-482.666 0H0m30.167 0h30.166m-30.166 0V181.5M0 151.333V181.5m60.333-30.167H90.5m-30.167 0V181.5M90.5 151.333h30.167m-30.167 0V181.5m30.167-30.167h30.166m-30.166 0V181.5m30.166-30.167H181m-30.167 0V181.5M181 151.333h30.167m-30.167 0V181.5m30.167-30.167h30.166m-30.166 0V181.5m30.166-30.167H271.5m-30.167 0V181.5m30.167-30.167h30.167m-30.167 0V181.5m30.167-30.167h30.166m-30.166 0V181.5m30.166-30.167H362m-30.167 0V181.5M362 151.333h30.167m-30.167 0V181.5m30.167-30.167h30.166m-30.166 0V181.5m30.166-30.167H452.5m-30.167 0V181.5m30.167-30.167h30.167m-30.167 0V181.5m30.167-30.167h30.166m-30.166 0V181.5m30.166-30.167V181.5m-482.666 0H0m30.167 0h30.166m-30.166 0v30.167M0 181.5v30.167M60.333 181.5H90.5m-30.167 0v30.167M90.5 181.5h30.167m-30.167 0v30.167m30.167-30.167h30.166m-30.166 0v30.167m30.166-30.167H181m-30.167 0v30.167M181 181.5h30.167m-30.167 0v30.167m30.167-30.167h30.166m-30.166 0v30.167m30.166-30.167H271.5m-30.167 0v30.167M271.5 181.5h30.167m-30.167 0v30.167m30.167-30.167h30.166m-30.166 0v30.167m30.166-30.167H362m-30.167 0v30.167M362 181.5h30.167m-30.167 0v30.167m30.167-30.167h30.166m-30.166 0v30.167m30.166-30.167H452.5m-30.167 0v30.167M452.5 181.5h30.167m-30.167 0v30.167m30.167-30.167h30.166m-30.166 0v30.167m30.166-30.167v30.167m-482.666 0H0m30.167 0h30.166m-30.166 0v30.166M0 211.667v30.166m60.333-30.166H90.5m-30.167 0v30.166M90.5 211.667h30.167m-30.167 0v30.166m30.167-30.166h30.166m-30.166 0v30.166m30.166-30.166H181m-30.167 0v30.166M181 211.667h30.167m-30.167 0v30.166m30.167-30.166h30.166m-30.166 0v30.166m30.166-30.166H271.5m-30.167 0v30.166m30.167-30.166h30.167m-30.167 0v30.166m30.167-30.166h30.166m-30.166 0v30.166m30.166-30.166H362m-30.167 0v30.166M362 211.667h30.167m-30.167 0v30.166m30.167-30.166h30.166m-30.166 0v30.166m30.166-30.166H452.5m-30.167 0v30.166m30.167-30.166h30.167m-30.167 0v30.166m30.167-30.166h30.166m-30.166 0v30.166m30.166-30.166v30.166m-482.666 0H0m30.167 0h30.166m-30.166 0V272M0 241.833V272h30.167m30.166-30.167H90.5m-30.167 0V272M90.5 241.833h30.167m-30.167 0V272m30.167-30.167h30.166m-30.166 0V272m30.166-30.167H181m-30.167 0V272M181 241.833h30.167m-30.167 0V272m30.167-30.167h30.166m-30.166 0V272m30.166-30.167H271.5m-30.167 0V272m30.167-30.167h30.167m-30.167 0V272m30.167-30.167h30.166m-30.166 0V272m30.166-30.167H362m-30.167 0V272M362 241.833h30.167m-30.167 0V272m30.167-30.167h30.166m-30.166 0V272m30.166-30.167H452.5m-30.167 0V272m30.167-30.167h30.167m-30.167 0V272m30.167-30.167h30.166m-30.166 0V272m30.166-30.167V272h-30.166m-452.5 0h30.166m0 0H90.5m0 0h30.167m0 0h30.166m0 0H181m0 0h30.167m0 0h30.166m0 0H271.5m0 0h30.167m0 0h30.166m0 0H362m0 0h30.167m0 0h30.166m0 0H452.5m0 0h30.167"/></g><defs><linearGradient id="b" x1="135.75" x2="135.75" y1="-30.053" y2=".887" gradientUnits="userSpaceOnUse"><stop stop-color="#fff" stop-opacity="0"/><stop offset="1" stop-color="#fff"/></linearGradient><linearGradient id="c" x1="105.583" x2="105.583" y1="150.947" y2="181.887" gradientUnits="userSpaceOnUse"><stop stop-color="#fff" stop-opacity="0"/><stop offset="1" stop-color="#fff"/></linearGradient><linearGradient id="d" x1="407.25" x2="407.25" y1=".113" y2="31.053" gradientUnits="userSpaceOnUse"><stop stop-color="#fff" stop-opacity="0"/><stop offset="1" stop-color="#fff"/></linearGradient><radialGradient id="e" cx="0" cy="0" r="1" gradientTransform="scale(256.803 170.944) rotate(90 .205 .794)" gradientUnits="userSpaceOnUse"><stop stop-color="#fff"/><stop offset="1" stop-color="#fff" stop-opacity="0"/></radialGradient><clipPath id="a"><path fill="#fff" d="M0 0h513v272H0z"/></clipPath></defs></svg>