<svg fill="none" xmlns="http://www.w3.org/2000/svg" viewBox="19.5 14.67 61.03 64.52">
<g clip-path="url(#clip0_48_27)">
<g filter="url(#filter0_d_48_27)">
<mask id="path-1-outside-1_48_27" maskUnits="userSpaceOnUse" x="19" y="14" width="62" height="66" fill="black">
<rect fill="white" x="19" y="14" width="62" height="66"/>
<path d="M26.84 77.16C24.44 77.16 22.84 76.44 22.04 75C21.32 73.56 21.36 71.84 22.16 69.84L42.68 21.6C43.4 19.84 44.36 18.6 45.56 17.88C46.76 17.08 48.24 16.68 50 16.68C53.44 16.68 55.88 18.32 57.32 21.6L77.84 69.84C78.72 71.84 78.76 73.56 77.96 75C77.24 76.44 75.64 77.16 73.16 77.16C71.88 77.16 70.8 76.84 69.92 76.2C69.04 75.56 68.24 74.36 67.52 72.6L46.4 22.2H53.72L32.48 72.6C31.76 74.36 30.96 75.56 30.08 76.2C29.28 76.84 28.2 77.16 26.84 77.16Z"/>
</mask>
<path d="M26.84 77.16C24.44 77.16 22.84 76.44 22.04 75C21.32 73.56 21.36 71.84 22.16 69.84L42.68 21.6C43.4 19.84 44.36 18.6 45.56 17.88C46.76 17.08 48.24 16.68 50 16.68C53.44 16.68 55.88 18.32 57.32 21.6L77.84 69.84C78.72 71.84 78.76 73.56 77.96 75C77.24 76.44 75.64 77.16 73.16 77.16C71.88 77.16 70.8 76.84 69.92 76.2C69.04 75.56 68.24 74.36 67.52 72.6L46.4 22.2H53.72L32.48 72.6C31.76 74.36 30.96 75.56 30.08 76.2C29.28 76.84 28.2 77.16 26.84 77.16Z" fill="#93B5BE" shape-rendering="crispEdges"/>
<path d="M22.04 75L20.2511 75.8944L20.2706 75.9333L20.2917 75.9713L22.04 75ZM22.16 69.84L20.3196 69.0571L20.3111 69.0771L20.303 69.0972L22.16 69.84ZM42.68 21.6L44.5204 22.3829L44.5258 22.3701L44.5311 22.3573L42.68 21.6ZM45.56 17.88L46.589 19.595L46.6298 19.5705L46.6694 19.5441L45.56 17.88ZM57.32 21.6L59.1604 20.8171L59.1559 20.8065L59.1513 20.796L57.32 21.6ZM77.84 69.84L75.9996 70.6229L76.0044 70.6342L76.0094 70.6455L77.84 69.84ZM77.96 75L76.2117 74.0287L76.1906 74.0667L76.1712 74.1056L77.96 75ZM67.52 72.6L69.3711 71.8427L69.3679 71.8349L69.3646 71.827L67.52 72.6ZM46.4 22.2V20.2H43.3934L44.5554 22.973L46.4 22.2ZM53.72 22.2L55.563 22.9767L56.7332 20.2H53.72V22.2ZM32.48 72.6L30.637 71.8233L30.6329 71.833L30.6289 71.8427L32.48 72.6ZM30.08 76.2L28.9037 74.5825L28.8665 74.6096L28.8306 74.6383L30.08 76.2ZM26.84 77.16V75.16C24.7986 75.16 24.0873 74.5668 23.7883 74.0287L22.04 75L20.2917 75.9713C21.5927 78.3132 24.0814 79.16 26.84 79.16V77.16ZM22.04 75L23.8289 74.1056C23.4429 73.3337 23.3537 72.2409 24.017 70.5828L22.16 69.84L20.303 69.0972C19.3663 71.4391 19.1971 73.7863 20.2511 75.8944L22.04 75ZM22.16 69.84L24.0004 70.6229L44.5204 22.3829L42.68 21.6L40.8396 20.8171L20.3196 69.0571L22.16 69.84ZM42.68 21.6L44.5311 22.3573C45.1455 20.8555 45.8717 20.0254 46.589 19.595L45.56 17.88L44.531 16.165C42.8483 17.1746 41.6545 18.8245 40.8289 20.8427L42.68 21.6ZM45.56 17.88L46.6694 19.5441C47.4747 19.0072 48.547 18.68 50 18.68V16.68V14.68C47.933 14.68 46.0453 15.1528 44.4506 16.2159L45.56 17.88ZM50 16.68V18.68C51.3918 18.68 52.4573 19.0073 53.2943 19.5699C54.1368 20.1361 54.8878 21.0351 55.4887 22.404L57.32 21.6L59.1513 20.796C58.3123 18.8849 57.1232 17.3239 55.5257 16.2501C53.9227 15.1727 52.0482 14.68 50 14.68V16.68ZM57.32 21.6L55.4796 22.3829L75.9996 70.6229L77.84 69.84L79.6804 69.0571L59.1604 20.8171L57.32 21.6ZM77.84 69.84L76.0094 70.6455C76.7266 72.2756 76.6145 73.3037 76.2117 74.0287L77.96 75L79.7083 75.9713C80.9055 73.8163 80.7134 71.4044 79.6706 69.0345L77.84 69.84ZM77.96 75L76.1712 74.1056C75.9533 74.5412 75.3344 75.16 73.16 75.16V77.16V79.16C75.9456 79.16 78.5267 78.3388 79.7489 75.8944L77.96 75ZM73.16 77.16V75.16C72.2258 75.16 71.5772 74.9322 71.0963 74.5825L69.92 76.2L68.7437 77.8175C70.0228 78.7478 71.5342 79.16 73.16 79.16V77.16ZM69.92 76.2L71.0963 74.5825C70.6661 74.2696 70.0423 73.4835 69.3711 71.8427L67.52 72.6L65.6689 73.3573C66.4377 75.2365 67.4139 76.8504 68.7437 77.8175L69.92 76.2ZM67.52 72.6L69.3646 71.827L48.2446 21.427L46.4 22.2L44.5554 22.973L65.6754 73.373L67.52 72.6ZM46.4 22.2V24.2H53.72V22.2V20.2H46.4V22.2ZM53.72 22.2L51.877 21.4233L30.637 71.8233L32.48 72.6L34.323 73.3767L55.563 22.9767L53.72 22.2ZM32.48 72.6L30.6289 71.8427C29.9577 73.4835 29.3339 74.2696 28.9037 74.5825L30.08 76.2L31.2563 77.8175C32.5861 76.8504 33.5623 75.2365 34.3311 73.3573L32.48 72.6ZM30.08 76.2L28.8306 74.6383C28.4864 74.9137 27.895 75.16 26.84 75.16V77.16V79.16C28.505 79.16 30.0736 78.7663 31.3294 77.7617L30.08 76.2Z" fill="#98D5E6" fill-opacity="0.5" mask="url(#path-1-outside-1_48_27)"/>
</g>
</g>
<defs>
<filter id="filter0_d_48_27" x="15.5283" y="14.68" width="69.0034" height="72.48" filterUnits="userSpaceOnUse" color-interpolation-filters="sRGB">
<feFlood flood-opacity="0" result="BackgroundImageFix"/>
<feColorMatrix in="SourceAlpha" type="matrix" values="0 0 0 0 0 0 0 0 0 0 0 0 0 0 0 0 0 0 127 0" result="hardAlpha"/>
<feOffset dy="4"/>
<feGaussianBlur stdDeviation="2"/>
<feComposite in2="hardAlpha" operator="out"/>
<feColorMatrix type="matrix" values="0 0 0 0 0 0 0 0 0 0 0 0 0 0 0 0 0 0 0.25 0"/>
<feBlend mode="normal" in2="BackgroundImageFix" result="effect1_dropShadow_48_27"/>
<feBlend mode="normal" in="SourceGraphic" in2="effect1_dropShadow_48_27" result="shape"/>
</filter>
<clipPath id="clip0_48_27">
<rect width="100" height="100" fill="white"/>
</clipPath>
</defs>
</svg>