<svg xmlns="http://www.w3.org/2000/svg" width="211" height="162" fill="none"><path fill="#fff" d="M62.062 91v-3.546l8.284-7.67a31.367 31.367 0 0 0 1.773-1.84c.485-.546.852-1.08 1.102-1.603.25-.53.375-1.102.375-1.716 0-.682-.155-1.269-.466-1.761-.31-.5-.735-.883-1.273-1.148-.537-.273-1.147-.41-1.83-.41-.711 0-1.332.145-1.863.433-.53.287-.94.7-1.227 1.238-.288.538-.432 1.178-.432 1.92h-4.67c0-1.522.344-2.844 1.034-3.965.69-1.121 1.655-1.989 2.897-2.603 1.243-.613 2.675-.92 4.296-.92 1.667 0 3.117.295 4.352.886 1.243.584 2.209 1.394 2.898 2.432.69 1.038 1.034 2.227 1.034 3.569a6.85 6.85 0 0 1-.523 2.602c-.34.856-.95 1.806-1.83 2.852-.878 1.038-2.117 2.284-3.715 3.739l-3.398 3.33v.158h9.773V91H62.062Zm31.841.511c-1.954-.007-3.636-.488-5.045-1.443-1.402-.954-2.481-2.337-3.239-4.147-.75-1.811-1.121-3.99-1.114-6.535 0-2.537.376-4.7 1.126-6.488.757-1.788 1.837-3.148 3.238-4.08 1.41-.94 3.087-1.409 5.034-1.409 1.947 0 3.621.47 5.023 1.41 1.409.939 2.492 2.302 3.25 4.09.758 1.78 1.133 3.94 1.125 6.477 0 2.553-.379 4.735-1.136 6.546-.75 1.81-1.826 3.193-3.228 4.147-1.401.955-3.08 1.432-5.034 1.432Zm0-4.08c1.334 0 2.398-.67 3.193-2.01.796-1.342 1.19-3.353 1.182-6.035 0-1.765-.182-3.234-.545-4.409-.356-1.174-.864-2.056-1.523-2.648a3.321 3.321 0 0 0-2.307-.886c-1.326 0-2.386.663-3.182 1.989-.795 1.326-1.197 3.31-1.204 5.954 0 1.788.178 3.28.534 4.478.364 1.189.875 2.083 1.534 2.681.66.591 1.432.887 2.318.887ZM109.37 91v-3.546l8.285-7.67a31.398 31.398 0 0 0 1.772-1.84c.485-.546.853-1.08 1.103-1.603.25-.53.375-1.102.375-1.716 0-.682-.156-1.269-.466-1.761a3.061 3.061 0 0 0-1.273-1.148c-.538-.273-1.148-.41-1.83-.41-.712 0-1.333.145-1.863.433-.531.287-.94.7-1.228 1.238-.287.538-.431 1.178-.431 1.92h-4.671c0-1.522.345-2.844 1.034-3.965.69-1.121 1.656-1.989 2.898-2.603 1.242-.613 2.674-.92 4.295-.92 1.667 0 3.118.295 4.353.886 1.242.584 2.208 1.394 2.897 2.432.69 1.038 1.035 2.227 1.035 3.569a6.86 6.86 0 0 1-.523 2.602c-.341.856-.951 1.806-1.83 2.852-.878 1.038-2.117 2.284-3.716 3.739l-3.397 3.33v.158h9.772V91H109.37Zm31.217.318c-1.606 0-3.038-.295-4.296-.886-1.25-.591-2.242-1.406-2.977-2.443-.735-1.038-1.117-2.228-1.148-3.569h4.773c.053.902.432 1.633 1.136 2.194.705.56 1.542.84 2.512.84.772 0 1.454-.17 2.045-.51a3.654 3.654 0 0 0 1.398-1.444c.341-.621.511-1.333.511-2.136 0-.819-.174-1.538-.522-2.16a3.697 3.697 0 0 0-1.421-1.454c-.606-.349-1.299-.526-2.079-.534a4.94 4.94 0 0 0-1.989.42c-.636.28-1.133.663-1.489 1.148L132.665 80l1.103-12.273h14.227v4.023h-10.171l-.602 5.83h.136c.41-.576 1.027-1.053 1.853-1.432.825-.38 1.75-.569 2.772-.569 1.402 0 2.652.33 3.75.99a7.122 7.122 0 0 1 2.603 2.715c.636 1.144.95 2.462.943 3.955.007 1.568-.356 2.962-1.091 4.181-.727 1.213-1.746 2.167-3.057 2.864-1.303.69-2.818 1.034-4.545 1.034ZM58.55 134.524a12.527 12.527 0 0 1 10.562 4.114 12.527 12.527 0 0 1 2.933 10.951 12.528 12.528 0 0 1-10.56-4.115 12.527 12.527 0 0 1-2.935-10.95Zm-8.462 21.621a12.529 12.529 0 0 1 9.312-6.465 12.524 12.524 0 0 1 10.723 3.684 12.528 12.528 0 0 1-9.31 6.463 12.532 12.532 0 0 1-10.725-3.682Zm-6.225-32.073a12.525 12.525 0 0 1 10.032 5.275 12.527 12.527 0 0 1 1.684 11.212 12.525 12.525 0 0 1-10.032-5.275 12.528 12.528 0 0 1-1.684-11.212Zm-10.839 20.53a12.527 12.527 0 0 1 9.98-5.376 12.524 12.524 0 0 1 10.24 4.865 12.528 12.528 0 0 1-9.978 5.375 12.527 12.527 0 0 1-10.242-4.864Zm1.578-33.355a12.529 12.529 0 0 1 7.62 8.393c1.1 4.002.13 8.083-2.258 11.109a12.528 12.528 0 0 1-7.619-8.391 12.53 12.53 0 0 1 2.257-11.111Zm-17.214 15.579a12.527 12.527 0 0 1 11.217-1.634 12.529 12.529 0 0 1 7.956 8.078 12.529 12.529 0 0 1-11.216 1.633 12.529 12.529 0 0 1-7.957-8.077ZM28.75 95.902a12.529 12.529 0 0 1 5.033 10.157 12.528 12.528 0 0 1-5.212 10.068 12.53 12.53 0 0 1-5.032-10.156 12.529 12.529 0 0 1 5.21-10.07ZM7.93 106.177a12.53 12.53 0 0 1 11.236 1.497 12.528 12.528 0 0 1 5.442 9.946 12.527 12.527 0 0 1-11.235-1.498 12.53 12.53 0 0 1-5.443-9.945Zm18.164-27.442a12.53 12.53 0 0 1 2.95 10.945 12.528 12.528 0 0 1-7.08 8.855 12.53 12.53 0 0 1-2.948-10.945 12.53 12.53 0 0 1 7.078-8.855Zm.967-17.695a12.53 12.53 0 0 1 1.855 11.184 12.528 12.528 0 0 1-7.92 8.112 12.53 12.53 0 0 1-1.853-11.183 12.53 12.53 0 0 1 7.918-8.113Zm4.991-15.539a12.529 12.529 0 0 1-3.42 10.806 12.527 12.527 0 0 1-10.738 3.638 12.528 12.528 0 0 1 3.42-10.805 12.529 12.529 0 0 1 10.738-3.639ZM3.668 84.74a12.528 12.528 0 0 1 10.726 3.665 12.527 12.527 0 0 1 3.392 10.82A12.527 12.527 0 0 1 7.06 95.558a12.53 12.53 0 0 1-3.393-10.82Zm.484-19.94a12.528 12.528 0 0 1 10.311 4.707 12.528 12.528 0 0 1 2.307 11.1A12.528 12.528 0 0 1 6.46 75.9a12.53 12.53 0 0 1-2.308-11.1Zm5.775-26.338a12.528 12.528 0 0 1 7.057 8.872 12.528 12.528 0 0 1-2.98 10.938 12.528 12.528 0 0 1-7.054-8.87 12.53 12.53 0 0 1 2.977-10.94Zm34.867-7.775A12.53 12.53 0 0 1 38.329 40a12.527 12.527 0 0 1-11.334.298 12.529 12.529 0 0 1 6.465-9.31 12.529 12.529 0 0 1 11.334-.3ZM25.742 17.42a12.53 12.53 0 0 1 4.115 10.563 12.528 12.528 0 0 1-6.082 9.567 12.53 12.53 0 0 1-4.113-10.562 12.53 12.53 0 0 1 6.08-9.568Zm33.595 4.336a12.529 12.529 0 0 1-9.462 6.24 12.527 12.527 0 0 1-10.63-3.936 12.528 12.528 0 0 1 9.46-6.24 12.53 12.53 0 0 1 10.632 3.936ZM70.634 5.89a12.529 12.529 0 0 1-7.283 8.686 12.528 12.528 0 0 1-11.313-.732 12.528 12.528 0 0 1 7.282-8.685 12.529 12.529 0 0 1 11.314.732ZM46.586 2.357a12.527 12.527 0 0 1-.107 11.335 12.528 12.528 0 0 1-9.203 6.622 12.528 12.528 0 0 1 .107-11.334 12.53 12.53 0 0 1 9.203-6.623Zm105.725 132.166a12.526 12.526 0 0 0-10.562 4.114 12.528 12.528 0 0 0-2.934 10.951 12.53 12.53 0 0 0 10.561-4.114 12.53 12.53 0 0 0 2.935-10.951Zm8.461 21.622a12.529 12.529 0 0 0-9.312-6.465 12.523 12.523 0 0 0-10.722 3.684 12.527 12.527 0 0 0 9.31 6.463c4.112.571 8.034-.92 10.724-3.682Zm6.226-32.073a12.526 12.526 0 0 0-10.033 5.275 12.527 12.527 0 0 0-1.683 11.212 12.524 12.524 0 0 0 10.031-5.275 12.524 12.524 0 0 0 1.685-11.212Zm10.838 20.53a12.526 12.526 0 0 0-9.979-5.376 12.526 12.526 0 0 0-10.241 4.865 12.53 12.53 0 0 0 9.979 5.375 12.526 12.526 0 0 0 10.241-4.864Zm-1.577-33.355a12.53 12.53 0 0 0-7.62 8.393 12.529 12.529 0 0 0 2.257 11.109 12.529 12.529 0 0 0 7.619-8.391 12.529 12.529 0 0 0-2.256-11.111Zm17.213 15.579a12.527 12.527 0 0 0-11.217-1.634 12.53 12.53 0 0 0-7.956 8.078 12.53 12.53 0 0 0 11.217 1.633 12.528 12.528 0 0 0 7.956-8.077Zm-11.361-30.924a12.53 12.53 0 0 0-5.034 10.157 12.532 12.532 0 0 0 5.212 10.068 12.53 12.53 0 0 0 5.032-10.156 12.527 12.527 0 0 0-5.21-10.07Zm20.819 10.275a12.529 12.529 0 0 0-11.236 1.497 12.528 12.528 0 0 0-5.442 9.946c3.64 1.268 7.813.85 11.235-1.498a12.527 12.527 0 0 0 5.443-9.945Zm-18.164-27.442a12.529 12.529 0 0 0-2.95 10.945 12.53 12.53 0 0 0 7.081 8.855 12.532 12.532 0 0 0 2.948-10.945 12.53 12.53 0 0 0-7.079-8.855Zm-.967-17.695a12.53 12.53 0 0 0-1.855 11.184 12.53 12.53 0 0 0 7.921 8.112 12.532 12.532 0 0 0 1.853-11.183 12.533 12.533 0 0 0-7.919-8.113Zm-4.991-15.539a12.532 12.532 0 0 0 3.42 10.806 12.528 12.528 0 0 0 10.738 3.638 12.527 12.527 0 0 0-3.42-10.805 12.528 12.528 0 0 0-10.738-3.639Zm28.384 39.239a12.527 12.527 0 0 0-10.726 3.665 12.528 12.528 0 0 0-3.392 10.82 12.528 12.528 0 0 0 10.725-3.666 12.529 12.529 0 0 0 3.393-10.82Zm-.483-19.94a12.528 12.528 0 0 0-10.312 4.707 12.528 12.528 0 0 0-2.307 11.1A12.527 12.527 0 0 0 204.4 75.9a12.526 12.526 0 0 0 2.309-11.1Zm-5.776-26.338a12.527 12.527 0 0 0-7.056 8.872 12.53 12.53 0 0 0 2.979 10.938 12.528 12.528 0 0 0 7.054-8.87 12.528 12.528 0 0 0-2.977-10.94Zm-34.866-7.775A12.529 12.529 0 0 0 172.532 40a12.526 12.526 0 0 0 11.333.298 12.53 12.53 0 0 0-6.464-9.31 12.53 12.53 0 0 0-11.334-.3Zm19.052-13.267a12.53 12.53 0 0 0-4.116 10.563 12.529 12.529 0 0 0 6.083 9.567 12.532 12.532 0 0 0 4.113-10.562 12.528 12.528 0 0 0-6.08-9.568Zm-33.596 4.336a12.53 12.53 0 0 0 9.462 6.24 12.527 12.527 0 0 0 10.631-3.936 12.526 12.526 0 0 0-9.461-6.24 12.529 12.529 0 0 0-10.632 3.936ZM140.226 5.89a12.528 12.528 0 0 0 7.284 8.686 12.527 12.527 0 0 0 11.313-.732 12.527 12.527 0 0 0-7.283-8.685 12.529 12.529 0 0 0-11.314.732Zm24.049-3.533a12.526 12.526 0 0 0 .107 11.335 12.528 12.528 0 0 0 9.202 6.622 12.526 12.526 0 0 0-.107-11.334 12.53 12.53 0 0 0-9.202-6.623Z"/></svg>