<svg xmlns="http://www.w3.org/2000/svg" width="211" height="162" fill="none"><path fill="#fff" d="M61.328 91v-3.546l8.284-7.67a31.302 31.302 0 0 0 1.772-1.84c.485-.546.853-1.08 1.103-1.603.25-.53.375-1.102.375-1.716 0-.682-.156-1.269-.466-1.761a3.06 3.06 0 0 0-1.273-1.148c-.538-.273-1.148-.41-1.83-.41-.712 0-1.333.145-1.863.433-.53.287-.94.7-1.227 1.238-.288.538-.432 1.178-.432 1.92H61.1c0-1.522.344-2.844 1.033-3.965.69-1.121 1.656-1.989 2.898-2.603 1.243-.613 2.674-.92 4.296-.92 1.666 0 3.117.295 4.352.886 1.242.584 2.208 1.394 2.898 2.432.689 1.038 1.034 2.227 1.034 3.569a6.84 6.84 0 0 1-.523 2.602c-.34.856-.95 1.806-1.83 2.852-.878 1.038-2.117 2.284-3.716 3.739l-3.397 3.33v.158h9.772V91h-16.59Zm31.84.511c-1.954-.007-3.636-.488-5.045-1.443-1.401-.954-2.48-2.337-3.238-4.147-.75-1.811-1.121-3.99-1.114-6.535 0-2.537.375-4.7 1.125-6.488.758-1.788 1.837-3.148 3.239-4.08 1.409-.94 3.087-1.409 5.034-1.409 1.947 0 3.621.47 5.023 1.41 1.409.939 2.492 2.302 3.25 4.09.757 1.78 1.132 3.94 1.125 6.477 0 2.553-.379 4.735-1.137 6.546-.75 1.81-1.826 3.193-3.227 4.147-1.402.955-3.08 1.432-5.034 1.432Zm0-4.08c1.334 0 2.399-.67 3.194-2.01.796-1.342 1.19-3.353 1.182-6.035 0-1.765-.182-3.234-.546-4.409-.356-1.174-.863-2.056-1.522-2.648a3.32 3.32 0 0 0-2.307-.886c-1.326 0-2.386.663-3.182 1.989-.795 1.326-1.197 3.31-1.204 5.954 0 1.788.177 3.28.534 4.478.363 1.189.875 2.083 1.534 2.681a3.36 3.36 0 0 0 2.318.887ZM108.636 91v-3.546l8.284-7.67a31.122 31.122 0 0 0 1.773-1.84c.485-.546.852-1.08 1.102-1.603.25-.53.375-1.102.375-1.716 0-.682-.155-1.269-.466-1.761-.31-.5-.735-.883-1.272-1.148-.538-.273-1.148-.41-1.83-.41-.712 0-1.333.145-1.864.433-.53.287-.939.7-1.227 1.238-.288.538-.432 1.178-.432 1.92h-4.67c0-1.522.345-2.844 1.034-3.965.689-1.121 1.655-1.989 2.898-2.603 1.242-.613 2.674-.92 4.295-.92 1.667 0 3.118.295 4.352.886 1.243.584 2.209 1.394 2.898 2.432.69 1.038 1.034 2.227 1.034 3.569a6.84 6.84 0 0 1-.523 2.602c-.34.856-.95 1.806-1.829 2.852-.879 1.038-2.117 2.284-3.716 3.739l-3.398 3.33v.158h9.773V91h-16.591Zm31.319.318c-1.697 0-3.209-.291-4.534-.875-1.319-.59-2.36-1.401-3.125-2.432-.758-1.037-1.148-2.234-1.171-3.59h4.955c.03.568.216 1.068.556 1.5.349.424.811.753 1.387.988s1.223.352 1.943.352c.75 0 1.413-.132 1.989-.397.575-.266 1.026-.633 1.352-1.103a2.78 2.78 0 0 0 .489-1.625c0-.62-.175-1.17-.523-1.647-.341-.485-.834-.864-1.477-1.137-.637-.273-1.394-.409-2.273-.409h-2.171V77.33h2.171c.742 0 1.398-.128 1.966-.386.575-.257 1.022-.614 1.341-1.068.318-.462.477-1 .477-1.614 0-.583-.14-1.094-.421-1.534a2.771 2.771 0 0 0-1.159-1.045c-.492-.25-1.068-.375-1.727-.375-.667 0-1.276.121-1.829.364a3.197 3.197 0 0 0-1.33 1.01c-.333.44-.511.955-.534 1.546h-4.716c.023-1.34.405-2.523 1.148-3.545.742-1.023 1.742-1.822 3-2.398 1.265-.583 2.693-.875 4.284-.875 1.606 0 3.011.292 4.216.875 1.204.583 2.14 1.371 2.807 2.364.674.985 1.007 2.09 1 3.318.007 1.303-.398 2.39-1.216 3.261-.811.871-1.868 1.424-3.171 1.66v.181c1.712.22 3.015.815 3.909 1.784.902.962 1.349 2.167 1.341 3.614.008 1.326-.375 2.504-1.148 3.534-.765 1.03-1.822 1.84-3.17 2.432-1.348.59-2.894.886-4.636.886ZM58.55 134.524a12.527 12.527 0 0 1 10.562 4.114 12.527 12.527 0 0 1 2.933 10.951 12.528 12.528 0 0 1-10.56-4.115 12.527 12.527 0 0 1-2.935-10.95Zm-8.462 21.621a12.529 12.529 0 0 1 9.312-6.465 12.524 12.524 0 0 1 10.723 3.684 12.528 12.528 0 0 1-9.31 6.463 12.532 12.532 0 0 1-10.725-3.682Zm-6.225-32.073a12.525 12.525 0 0 1 10.032 5.275 12.527 12.527 0 0 1 1.684 11.212 12.525 12.525 0 0 1-10.032-5.275 12.528 12.528 0 0 1-1.684-11.212Zm-10.839 20.53a12.527 12.527 0 0 1 9.98-5.376 12.524 12.524 0 0 1 10.24 4.865 12.528 12.528 0 0 1-9.978 5.375 12.527 12.527 0 0 1-10.242-4.864Zm1.578-33.355a12.529 12.529 0 0 1 7.62 8.393c1.1 4.002.13 8.083-2.258 11.109a12.528 12.528 0 0 1-7.619-8.391 12.53 12.53 0 0 1 2.257-11.111Zm-17.214 15.579a12.527 12.527 0 0 1 11.217-1.634 12.529 12.529 0 0 1 7.956 8.078 12.529 12.529 0 0 1-11.216 1.633 12.529 12.529 0 0 1-7.957-8.077ZM28.75 95.902a12.529 12.529 0 0 1 5.033 10.157 12.528 12.528 0 0 1-5.212 10.068 12.53 12.53 0 0 1-5.032-10.156 12.529 12.529 0 0 1 5.21-10.07ZM7.93 106.177a12.53 12.53 0 0 1 11.236 1.497 12.528 12.528 0 0 1 5.442 9.946 12.527 12.527 0 0 1-11.235-1.498 12.53 12.53 0 0 1-5.443-9.945Zm18.164-27.442a12.53 12.53 0 0 1 2.95 10.945 12.528 12.528 0 0 1-7.08 8.855 12.53 12.53 0 0 1-2.948-10.945 12.53 12.53 0 0 1 7.078-8.855Zm.967-17.695a12.53 12.53 0 0 1 1.855 11.184 12.528 12.528 0 0 1-7.92 8.112 12.53 12.53 0 0 1-1.853-11.183 12.53 12.53 0 0 1 7.918-8.113Zm4.991-15.539a12.529 12.529 0 0 1-3.42 10.806 12.527 12.527 0 0 1-10.738 3.638 12.528 12.528 0 0 1 3.42-10.805 12.529 12.529 0 0 1 10.738-3.639ZM3.668 84.74a12.528 12.528 0 0 1 10.726 3.665 12.527 12.527 0 0 1 3.392 10.82A12.527 12.527 0 0 1 7.06 95.558a12.53 12.53 0 0 1-3.393-10.82Zm.484-19.94a12.528 12.528 0 0 1 10.311 4.707 12.528 12.528 0 0 1 2.307 11.1A12.528 12.528 0 0 1 6.46 75.9a12.53 12.53 0 0 1-2.308-11.1Zm5.775-26.338a12.528 12.528 0 0 1 7.057 8.872 12.528 12.528 0 0 1-2.98 10.938 12.528 12.528 0 0 1-7.054-8.87 12.53 12.53 0 0 1 2.977-10.94Zm34.867-7.775A12.53 12.53 0 0 1 38.329 40a12.527 12.527 0 0 1-11.334.298 12.529 12.529 0 0 1 6.465-9.31 12.529 12.529 0 0 1 11.334-.3ZM25.742 17.42a12.53 12.53 0 0 1 4.115 10.563 12.528 12.528 0 0 1-6.082 9.567 12.53 12.53 0 0 1-4.113-10.562 12.53 12.53 0 0 1 6.08-9.568Zm33.595 4.336a12.529 12.529 0 0 1-9.462 6.24 12.527 12.527 0 0 1-10.63-3.936 12.528 12.528 0 0 1 9.46-6.24 12.53 12.53 0 0 1 10.632 3.936ZM70.634 5.89a12.529 12.529 0 0 1-7.283 8.686 12.528 12.528 0 0 1-11.313-.732 12.528 12.528 0 0 1 7.282-8.685 12.529 12.529 0 0 1 11.314.732ZM46.586 2.357a12.527 12.527 0 0 1-.107 11.335 12.528 12.528 0 0 1-9.203 6.622 12.528 12.528 0 0 1 .107-11.334 12.53 12.53 0 0 1 9.203-6.623Zm105.725 132.166a12.526 12.526 0 0 0-10.562 4.114 12.528 12.528 0 0 0-2.934 10.951 12.53 12.53 0 0 0 10.561-4.114 12.53 12.53 0 0 0 2.935-10.951Zm8.461 21.622a12.529 12.529 0 0 0-9.312-6.465 12.523 12.523 0 0 0-10.722 3.684 12.527 12.527 0 0 0 9.31 6.463c4.112.571 8.034-.92 10.724-3.682Zm6.226-32.073a12.526 12.526 0 0 0-10.033 5.275 12.527 12.527 0 0 0-1.683 11.212 12.524 12.524 0 0 0 10.031-5.275 12.524 12.524 0 0 0 1.685-11.212Zm10.838 20.53a12.526 12.526 0 0 0-9.979-5.376 12.526 12.526 0 0 0-10.241 4.865 12.53 12.53 0 0 0 9.979 5.375 12.526 12.526 0 0 0 10.241-4.864Zm-1.577-33.355a12.53 12.53 0 0 0-7.62 8.393 12.529 12.529 0 0 0 2.257 11.109 12.529 12.529 0 0 0 7.619-8.391 12.529 12.529 0 0 0-2.256-11.111Zm17.213 15.579a12.527 12.527 0 0 0-11.217-1.634 12.53 12.53 0 0 0-7.956 8.078 12.53 12.53 0 0 0 11.217 1.633 12.528 12.528 0 0 0 7.956-8.077Zm-11.361-30.924a12.53 12.53 0 0 0-5.034 10.157 12.532 12.532 0 0 0 5.212 10.068 12.53 12.53 0 0 0 5.032-10.156 12.527 12.527 0 0 0-5.21-10.07Zm20.819 10.275a12.529 12.529 0 0 0-11.236 1.497 12.528 12.528 0 0 0-5.442 9.946c3.64 1.268 7.813.85 11.235-1.498a12.527 12.527 0 0 0 5.443-9.945Zm-18.164-27.442a12.529 12.529 0 0 0-2.95 10.945 12.53 12.53 0 0 0 7.081 8.855 12.532 12.532 0 0 0 2.948-10.945 12.53 12.53 0 0 0-7.079-8.855Zm-.967-17.695a12.53 12.53 0 0 0-1.855 11.184 12.53 12.53 0 0 0 7.921 8.112 12.532 12.532 0 0 0 1.853-11.183 12.533 12.533 0 0 0-7.919-8.113Zm-4.991-15.539a12.532 12.532 0 0 0 3.42 10.806 12.528 12.528 0 0 0 10.738 3.638 12.527 12.527 0 0 0-3.42-10.805 12.528 12.528 0 0 0-10.738-3.639Zm28.384 39.239a12.527 12.527 0 0 0-10.726 3.665 12.528 12.528 0 0 0-3.392 10.82 12.528 12.528 0 0 0 10.725-3.666 12.529 12.529 0 0 0 3.393-10.82Zm-.483-19.94a12.528 12.528 0 0 0-10.312 4.707 12.528 12.528 0 0 0-2.307 11.1A12.527 12.527 0 0 0 204.4 75.9a12.526 12.526 0 0 0 2.309-11.1Zm-5.776-26.338a12.527 12.527 0 0 0-7.056 8.872 12.53 12.53 0 0 0 2.979 10.938 12.528 12.528 0 0 0 7.054-8.87 12.528 12.528 0 0 0-2.977-10.94Zm-34.866-7.775A12.529 12.529 0 0 0 172.532 40a12.526 12.526 0 0 0 11.333.298 12.53 12.53 0 0 0-6.464-9.31 12.53 12.53 0 0 0-11.334-.3Zm19.052-13.267a12.53 12.53 0 0 0-4.116 10.563 12.529 12.529 0 0 0 6.083 9.567 12.532 12.532 0 0 0 4.113-10.562 12.528 12.528 0 0 0-6.08-9.568Zm-33.596 4.336a12.53 12.53 0 0 0 9.462 6.24 12.527 12.527 0 0 0 10.631-3.936 12.526 12.526 0 0 0-9.461-6.24 12.529 12.529 0 0 0-10.632 3.936ZM140.226 5.89a12.528 12.528 0 0 0 7.284 8.686 12.527 12.527 0 0 0 11.313-.732 12.527 12.527 0 0 0-7.283-8.685 12.529 12.529 0 0 0-11.314.732Zm24.049-3.533a12.526 12.526 0 0 0 .107 11.335 12.528 12.528 0 0 0 9.202 6.622 12.526 12.526 0 0 0-.107-11.334 12.53 12.53 0 0 0-9.202-6.623Z"/></svg>